<?xml version="1.0" encoding="utf-8"?>
<!-- Generator: Adobe Illustrator 17.0.1, SVG Export Plug-In . SVG Version: 6.00 Build 0)  -->
<!DOCTYPE svg PUBLIC "-//W3C//DTD SVG 1.1//EN" "http://www.w3.org/Graphics/SVG/1.1/DTD/svg11.dtd">
<svg version="1.1" id="Capa_1" xmlns="http://www.w3.org/2000/svg" xmlns:xlink="http://www.w3.org/1999/xlink" x="0px" y="0px"
	 width="414.5px" height="441.5px" viewBox="0 0 414.5 441.5" enable-background="new 0 0 414.5 441.5" xml:space="preserve">
<circle fill="#BDCCD4" stroke="#FFFFFF" stroke-miterlimit="10" cx="313.364" cy="132.623" r="59.091"/>
<path fill="#BDCCD4" stroke="#FFFFFF" stroke-miterlimit="10" d="M393.5,277c0-51.042-15.894-92.5-35.5-92.5h-90
	c-19.606,0-35.5,41.458-35.5,92.5l0,0c0,51.042,15.894,92.5,35.5,92.5h90C377.606,369.5,393.5,328.042,393.5,277L393.5,277z"/>
<circle fill="#7A7A7A" stroke="#FFFFFF" stroke-miterlimit="10" cx="101.364" cy="132.623" r="59.091"/>
<path fill="#7A7A7A" stroke="#FFFFFF" stroke-miterlimit="10" d="M181.5,277c0-51.042-15.894-92.5-35.5-92.5H56
	c-19.606,0-35.5,41.458-35.5,92.5l0,0c0,51.042,15.894,92.5,35.5,92.5h90C165.606,369.5,181.5,328.042,181.5,277L181.5,277z"/>
<circle stroke="#FFFFFF" stroke-miterlimit="10" cx="205.364" cy="177.623" r="59.091"/>
<path stroke="#FFFFFF" stroke-miterlimit="10" d="M285.5,322c0-51.042-15.894-92.5-35.5-92.5h-90c-19.606,0-35.5,41.458-35.5,92.5
	l0,0c0,51.042,15.894,92.5,35.5,92.5h90C269.606,414.5,285.5,373.042,285.5,322L285.5,322z"/>
</svg>
